<svg viewBox="-179 -179 358 358" xmlns="http://www.w3.org/2000/svg">
<defs>
<radialGradient id="eyeG">
  <stop stop-color="#fff" offset=".5"/>
  <stop stop-color="#000" offset="1"/>
</radialGradient>
<mask id="eyeM">
  <circle r="10" fill="url(#eyeG)"/>  
</mask>
<path id="bodyO" d="m-30-51-21 37h-99v28h99l22 37h59l21-37h99v-28h-99l-21-37z"/>
<clipPath id="bodyClip">
  <circle r="136"/>
</clipPath>
<g id="hoshi">
  <path d="m0-25 10.3 10.8 13.5 6.5-7.2 13.1-1.9 14.8-14.7-2.7-14.7 2.7-1.9-14.8-7.1-13.1 13.5-6.4z" stroke="#323232" stroke-linejoin="round" stroke-width="4"/>
  <path id="hoshiP" d="m-4 17h8l-4-13z" fill="#323232"/>
  <use transform="rotate(-72)" href="#hoshiP"/>
  <use transform="rotate(216)" href="#hoshiP"/>
  <use transform="rotate(144)" href="#hoshiP"/>
  <use transform="rotate(72)" href="#hoshiP"/>
</g>
<g id="tuno" stroke-linejoin="round" stroke-width="4">
  <path d="m-38 0c6 2 22 4 22 4l12 8c2.67 1.33 5.33 1.33 8 0l12-8s16-2 22-4c3.16-1.05-6-8-6-8-16-20-24-36-28-56 0 0-1-2-4-2s-4 2-4 2c-4 20-12 36-28 56 0 0-9.16 6.95-6 8z" fill="#80ffa6" stroke="#323232"/>
  <path id="tunoP" d="m-13 4c4.98-12.8 6.88-28.5 9-44-4 15-9 29-15 43" fill="#323232" stroke="#323232" stroke-width="2"/>
  <use transform="scale(-1,1)" href="#tunoP"/>
</g>
</defs>
<g stroke="#323232" stroke-linejoin="round" stroke-width="4">
  <circle r="136" fill="#ccc" stroke="none"/>
  <g clip-path="url(#bodyClip)">
    <use href="#bodyO" stroke-width="12"/>
    <use href="#bodyO" fill="#323232" stroke="#6e6e6e"/>
  </g>
  <circle r="136" fill="none"/>
</g>
<g fill="#80ffa6">
  <circle id="eyeA" transform="translate(0 -20)" r="10" mask="url(#eyeM)"/>
  <use id="eyeB" transform="rotate(240)" href="#eyeA"/>
  <use id="eyeC" transform="rotate(120)" href="#eyeA"/>
</g>
<g id="ashiA" transform="translate(126)" fill="#ccc" stroke="#323232" stroke-linecap="round" stroke-linejoin="round" stroke-width="4">
  <ellipse rx="12" ry="38" fill="#6e6e6e"/>
  <path d="m2-19 41-12v59l-41-9c-3-12-3-25 0-38z"/>
  <path d="m53-172c-8-16-18-21-28-24-4 20-11 37-20 52 12 12 28 116 32 144s4 132 4 132c22 17 26 30 32 44 16-14 21-29 24-44 0-20 4-85-8-156-11-66-24-128-36-148z"/>
  <path d="m37-16c23 3 51 13 52-8m8 156c-4 12-8 20-56 0m12-304c-8-5-10-19-48 28m20-52c41 45 64 192 64 280 0 32 4 64-16 92" fill="none"/>
</g>
<use transform="scale(-1,1)" href="#ashiA"/>
<use transform="translate(80 56) rotate(15)" fill="#80ffa6" href="#hoshi"/>
<use transform="translate(76,-96) rotate(32)" href="#tuno"/>
<use transform="translate(-76,-96) rotate(-32)" href="#tuno"/>
<use transform="translate(76,100) rotate(148)" href="#tuno"/>
<use transform="translate(-76,100) rotate(212)" href="#tuno"/>
</svg>